<?xml version="1.0" encoding="iso-8859-1"?>
<!-- Generator: Adobe Illustrator 19.1.1, SVG Export Plug-In . SVG Version: 6.00 Build 0)  -->
<svg xmlns="http://www.w3.org/2000/svg" xmlns:xlink="http://www.w3.org/1999/xlink" version="1.1" id="Layer_1" x="0px" y="0px" viewBox="0 0 48 48" style="enable-background:new 0 0 48 48;" xml:space="preserve">
<circle style="fill:#FFCA28;" cx="24" cy="24" r="19"/>
<path style="fill:none;stroke:#B76C09;stroke-width:2;" d="M13,22c0,0,1.5,2,4,2s4-2,4-2"/>
<path style="fill:none;stroke:#B76C09;stroke-width:2;" d="M27,22c0,0,1.5,2,4,2s4-2,4-2"/>
<path style="fill:#C62828;" d="M29,36c0-2.761-2.239-5-5-5s-5,2.239-5,5H29z"/>
<circle style="fill:#4CAF50;" cx="20" cy="45" r="1"/>
<circle style="fill:#4CAF50;" cx="24" cy="47" r="1"/>
<circle style="fill:#4CAF50;" cx="28" cy="44" r="1"/>
<path style="fill:#4CAF50;" d="M19,36v9h2c0,0,0.004-1,1-1s1,1,1,1v2h2v-3c0,0-0.001-1,1-1s1,1,1,1l0,0h2v-8c0,0-1.042-2-5-2  S19,36,19,36z"/>
</svg>
